<?xml version="1.0" standalone="no"?><!DOCTYPE svg PUBLIC "-//W3C//DTD SVG 1.1//EN" "http://www.w3.org/Graphics/SVG/1.1/DTD/svg11.dtd"><svg t="1751968540166" class="icon" viewBox="0 0 1024 1024" version="1.1" xmlns="http://www.w3.org/2000/svg" p-id="5368" xmlns:xlink="http://www.w3.org/1999/xlink" width="200" height="200"><path d="M128.625778 83.626667c-23.950222 0-42.097778 5.973333-53.873778 17.521777-31.232 31.118222-20.366222 109.226667 29.184 208.213334 54.442667 108.828444 148.366222 232.96 264.419556 349.013333 183.296 183.068444 390.257778 311.068444 503.182222 311.068445 24.007111 0 42.154667-5.973333 53.873778-17.521778 31.288889-31.175111 20.366222-109.226667-29.127112-208.213334-54.499556-108.771556-148.366222-233.016889-264.419555-349.070222C448.568889 211.626667 241.664 83.626667 128.568889 83.626667z m742.968889 928.426666c-125.383111 0-339.740444-130.104889-533.447111-323.413333-119.182222-119.466667-215.893333-247.466667-272.327112-360.106667C5.859556 208.611556-1.592889 117.304889 44.600889 70.826667 64.625778 51.2 92.956444 40.96 128.568889 40.96c125.383111 0 339.740444 130.104889 533.390222 323.811556 119.182222 119.125333 215.950222 247.125333 272.440889 359.708444 59.847111 119.921778 67.356444 211.228444 21.162667 257.706667-20.024889 20.024889-48.355556 29.866667-84.081778 29.866666z" fill="#909090" p-id="5369"></path><path d="M871.537778 83.626667c-112.981333 0-319.886222 128-503.182222 311.068444-116.053333 116.053333-209.976889 240.241778-264.419556 349.013333-49.493333 98.986667-60.416 177.038222-29.184 208.213334 11.776 11.548444 29.923556 17.521778 53.930667 17.521778 112.981333 0 319.886222-128 503.182222-311.068445 116.053333-116.053333 209.92-240.184889 264.419555-349.070222 49.493333-98.929778 60.416-177.038222 29.127112-208.213333-11.719111-11.491556-29.809778-17.464889-53.873778-17.464889zM128.682667 1012.053333c-35.783111 0-64.056889-9.784889-84.081778-29.866666-46.250667-46.478222-38.684444-137.784889 21.219555-257.706667 56.433778-112.64 153.144889-240.64 272.327112-359.651556C531.911111 171.008 746.211556 40.96 871.537778 40.96c35.783111 0 64.056889 10.24 84.081778 29.923556 46.193778 46.478222 38.684444 137.728-21.162667 257.649777-56.433778 112.64-153.201778 240.64-272.440889 360.106667-193.649778 193.251556-408.007111 323.413333-533.333333 323.413333z" fill="#909090" p-id="5370"></path><path d="M500.053333 495.786667a30.947556 30.947556 0 0 0-30.549333 30.72 30.606222 30.606222 0 1 0 61.155556 0 30.947556 30.947556 0 0 0-30.549334-30.72z m0 104.106666a73.386667 73.386667 0 0 1 0-146.773333 73.386667 73.386667 0 0 1 0 146.773333z" fill="#909090" p-id="5371"></path></svg>